<svg width="21" height="20" viewBox="0 0 21 20" fill="none" xmlns="http://www.w3.org/2000/svg">
<path opacity="0.4" d="M0.957032 10.182C0.957032 4.76738 5.45267 0.364014 10.9785 0.364014C16.5044 0.364014 21 4.76738 21 10.182C21 15.5956 16.5044 20 10.9785 20C5.45267 20 0.957032 15.5956 0.957032 10.182Z" fill="#694DC5"/>
<path d="M6.74871 11.5982C6.74871 11.4107 6.82186 11.2222 6.96818 11.0789L10.4456 7.65534C10.5869 7.51691 10.7783 7.43935 10.9788 7.43935C11.1782 7.43935 11.3696 7.51691 11.5109 7.65534L14.9904 11.0789C15.283 11.3665 15.283 11.8319 14.9884 12.1196C14.6937 12.4063 14.2177 12.4053 13.9251 12.1176L10.9788 9.21837L8.03246 12.1176C7.73983 12.4053 7.26481 12.4063 6.97018 12.1196C6.82186 11.9762 6.74871 11.7868 6.74871 11.5982Z" fill="#694DC5"/>
</svg>
