<svg width="42" height="42" viewBox="0 0 42 42" fill="none" xmlns="http://www.w3.org/2000/svg">
<g clip-path="url(#clip0)">
<path fill-rule="evenodd" clip-rule="evenodd" d="M4.94814 1.34115C5.40745 0.882533 5.95898 0.526766 6.56618 0.297424C7.17339 0.0680821 7.8224 -0.0295967 8.47021 0.0108603C9.11802 0.0513174 9.74983 0.228987 10.3238 0.532094C10.8977 0.835201 11.4007 1.25683 11.7994 1.76903L16.5113 7.82228C17.3749 8.93265 17.6794 10.379 17.3381 11.744L15.9023 17.4928C15.828 17.7905 15.832 18.1024 15.9139 18.3982C15.9958 18.6939 16.1527 18.9635 16.3695 19.1807L22.8191 25.6303C23.0366 25.8475 23.3066 26.0047 23.6028 26.0866C23.8991 26.1685 24.2115 26.1722 24.5096 26.0975L30.2558 24.6617C30.9294 24.4932 31.6325 24.4801 32.3119 24.6234C32.9913 24.7666 33.6292 25.0625 34.1775 25.4885L40.2308 30.1978C42.4069 31.8909 42.6064 35.1065 40.6586 37.0517L37.9444 39.7659C36.0019 41.7084 33.0986 42.5615 30.3923 41.6087C23.4654 39.1714 17.1761 35.2058 11.991 30.0061C6.79165 24.8218 2.82611 18.5335 0.388515 11.6075C-0.561734 8.90378 0.291391 5.9979 2.23389 4.0554L4.94814 1.34115Z" fill="#E9E2FF"/>
</g>
<defs>
<clipPath id="clip0">
<rect width="42" height="42" fill="white"/>
</clipPath>
</defs>
</svg>
