<svg width="42" height="42" viewBox="0 0 42 42" fill="none" xmlns="http://www.w3.org/2000/svg">
<path d="M37.625 14.854V29.5312C37.625 32.0688 35.5688 34.125 33.0312 34.125H8.96875C7.75041 34.125 6.58197 33.641 5.72048 32.7795C4.85898 31.918 4.375 30.7496 4.375 29.5312V14.854L20.4733 23.709C20.8014 23.8892 21.1995 23.8892 21.5267 23.709L37.625 14.8531V14.854ZM33.0312 7.875C34.2304 7.87511 35.382 8.34413 36.24 9.18188C37.098 10.0196 37.5945 11.1597 37.6233 12.3585L21 21.5022L4.37675 12.3576L4.3785 12.2789C4.4275 11.0944 4.93256 9.97463 5.78805 9.15388C6.64354 8.33312 7.78321 7.87489 8.96875 7.875H33.0312Z" fill="#694DC5"/>
</svg>
