<svg width="155" height="41" viewBox="0 0 155 41" fill="none" xmlns="http://www.w3.org/2000/svg">
<g clip-path="url(#clip0)">
<path d="M40.0755 19.9959C40.1313 31.0676 31.1233 40.0476 20.1075 40.0476C8.95214 40.0755 0 31.0955 0 20.0238C0 8.95215 8.95214 0 20.0796 0C31.0955 0 40.0755 8.98003 40.0755 19.9959ZM10.1235 29.0596C10.1235 29.45 10.1235 29.8684 10.1235 30.2588C10.1235 30.5098 10.2629 30.6492 10.5139 30.705C10.737 30.7608 10.9322 30.6771 11.1274 30.5935C12.4103 30.0636 13.6932 29.5058 14.976 28.9759C16.9282 28.1672 18.9083 27.3584 20.8604 26.5497C22.5616 25.8525 24.2349 25.1274 25.9361 24.4023C27.7489 23.6493 29.5895 22.8963 31.4022 22.1154C31.9321 21.8923 32.2946 21.5577 32.3225 20.972C32.3504 20.3863 32.3225 19.8007 32.3225 19.1872C32.3225 18.6015 32.0437 18.239 31.5138 17.988C31.0397 17.7648 30.5656 17.5696 30.0636 17.3744C29.0596 16.9561 28.0556 16.5378 27.0516 16.1194C25.5457 15.478 24.0397 14.8645 22.5616 14.2509C20.47 13.3585 18.3505 12.4661 16.2589 11.6015C15.0597 11.0995 13.8884 10.5976 12.6892 10.1235C12.1035 9.87246 11.5179 9.62146 10.9043 9.37047C10.486 9.20314 10.0956 9.45413 10.0956 9.90035C10.1235 10.6254 10.1235 11.3505 10.0956 12.0756C10.0956 12.494 10.2908 12.7728 10.6533 12.9402C11.9641 13.47 13.3027 14.0278 14.6135 14.5577C16.6214 15.3665 18.6294 16.1473 20.6095 16.9561C21.976 17.5139 23.3425 18.0437 24.709 18.6015C25.7967 19.0477 26.9122 19.466 27.9999 19.9122C28.0835 19.9401 28.1951 19.968 28.1951 20.0796C28.1951 20.1911 28.0556 20.1911 27.9999 20.219C27.3305 20.4979 26.6891 20.7489 26.0198 21.0278C23.8166 21.9202 21.6134 22.7847 19.3824 23.6772C18.2947 24.1234 17.1792 24.5417 16.0915 24.9879C15.0318 25.4062 13.972 25.8525 12.9123 26.2708C12.1314 26.6054 11.3226 26.8843 10.5418 27.2469C10.235 27.3863 10.0677 27.6373 10.0677 27.9999C10.1235 28.3345 10.1235 28.6971 10.1235 29.0596Z" fill="#EAE5FA"/>
</g>
<path d="M57.3272 14.502H59.6118V22.2304C59.6118 22.7182 59.5166 23.1763 59.3262 23.6047C59.1358 24.0331 58.88 24.4079 58.5587 24.7292C58.2374 25.0385 57.8626 25.2884 57.4343 25.4788C57.0059 25.6573 56.5478 25.7465 56.0599 25.7465C55.5959 25.7465 55.1556 25.6632 54.7391 25.4966C54.3346 25.3301 53.9716 25.098 53.6504 24.8005C53.341 25.098 52.9781 25.3301 52.5616 25.4966C52.1451 25.6632 51.7049 25.7465 51.2408 25.7465C50.753 25.7465 50.2948 25.6573 49.8665 25.4788C49.4381 25.2884 49.0633 25.0385 48.742 24.7292C48.4208 24.4079 48.1649 24.0331 47.9745 23.6047C47.7842 23.1763 47.689 22.7182 47.689 22.2304V14.502H49.9736V22.3731C50.0212 22.6825 50.164 22.9443 50.4019 23.1585C50.6399 23.3727 50.9195 23.4798 51.2408 23.4798C51.574 23.4798 51.8596 23.3727 52.0975 23.1585C52.3355 22.9324 52.4724 22.6587 52.5081 22.3375V14.502H54.7927V22.2125C54.8046 22.5576 54.9295 22.8551 55.1675 23.1049C55.4174 23.3548 55.7208 23.4798 56.0778 23.4798C56.3871 23.4798 56.6549 23.3786 56.8809 23.1763C57.1189 22.974 57.2677 22.7182 57.3272 22.4088V14.502Z" fill="#DCD4F6"/>
<path d="M68.9246 14.502V16.6616H63.7843C63.4868 16.7092 63.2369 16.8461 63.0346 17.0721C62.8443 17.2863 62.7491 17.5422 62.7491 17.8396C62.7491 18.149 62.8502 18.4167 63.0525 18.6428C63.2548 18.8689 63.5106 18.9938 63.82 19.0176H68.9246V21.213H63.9092C63.5879 21.2249 63.3143 21.3439 63.0882 21.57C62.8621 21.796 62.7491 22.0697 62.7491 22.391C62.7491 22.6885 62.8443 22.9443 63.0346 23.1585C63.225 23.3727 63.4571 23.5095 63.7307 23.569H68.9246V25.7465H63.82C63.3559 25.7465 62.9216 25.6573 62.517 25.4788C62.1244 25.3003 61.7733 25.0623 61.464 24.7648C61.1665 24.4555 60.9285 24.1045 60.75 23.7118C60.5834 23.3072 60.5002 22.8729 60.5002 22.4088C60.5002 21.9567 60.5775 21.5402 60.7322 21.1594C60.8988 20.7668 61.1189 20.4217 61.3926 20.1242C61.1189 19.8268 60.8988 19.4876 60.7322 19.1069C60.5775 18.7142 60.5002 18.2918 60.5002 17.8396C60.5002 17.3756 60.5834 16.9472 60.75 16.5545C60.9285 16.15 61.1665 15.7989 61.464 15.5015C61.7733 15.1921 62.1244 14.9482 62.517 14.7697C62.9216 14.5912 63.3559 14.502 63.82 14.502H68.9246Z" fill="#DCD4F6"/>
<path d="M78.2498 14.502V16.6616H73.1094C72.812 16.7092 72.5621 16.8461 72.3598 17.0721C72.1694 17.2863 72.0742 17.5422 72.0742 17.8396C72.0742 18.149 72.1754 18.4167 72.3776 18.6428C72.5799 18.8689 72.8358 18.9938 73.1451 19.0176H78.2498V21.213H73.2344C72.9131 21.2249 72.6394 21.3439 72.4133 21.57C72.1873 21.796 72.0742 22.0697 72.0742 22.391C72.0742 22.6885 72.1694 22.9443 72.3598 23.1585C72.5502 23.3727 72.7822 23.5095 73.0559 23.569H78.2498V25.7465H73.1451C72.6811 25.7465 72.2467 25.6573 71.8422 25.4788C71.4495 25.3003 71.0985 25.0623 70.7891 24.7648C70.4916 24.4555 70.2537 24.1045 70.0752 23.7118C69.9086 23.3072 69.8253 22.8729 69.8253 22.4088C69.8253 21.9567 69.9026 21.5402 70.0573 21.1594C70.2239 20.7668 70.444 20.4217 70.7177 20.1242C70.444 19.8268 70.2239 19.4876 70.0573 19.1069C69.9026 18.7142 69.8253 18.2918 69.8253 17.8396C69.8253 17.3756 69.9086 16.9472 70.0752 16.5545C70.2537 16.15 70.4916 15.7989 70.7891 15.5015C71.0985 15.1921 71.4495 14.9482 71.8422 14.7697C72.2467 14.5912 72.6811 14.502 73.1451 14.502H78.2498Z" fill="#DCD4F6"/>
<path d="M84.2373 14.502C84.7013 14.502 85.1297 14.5912 85.5224 14.7697C85.9269 14.9482 86.278 15.1921 86.5754 15.5015C86.8848 15.7989 87.1228 16.15 87.2894 16.5545C87.4679 16.9472 87.5571 17.3756 87.5571 17.8396C87.5571 18.2918 87.4738 18.7142 87.3072 19.1069C87.1525 19.4876 86.9384 19.8268 86.6647 20.1242C86.9384 20.4217 87.1525 20.7668 87.3072 21.1594C87.4738 21.5402 87.5571 21.9567 87.5571 22.4088C87.5571 22.8729 87.4679 23.3072 87.2894 23.7118C87.1228 24.1045 86.8848 24.4555 86.5754 24.7648C86.278 25.0623 85.9269 25.3003 85.5224 25.4788C85.1297 25.6573 84.7013 25.7465 84.2373 25.7465H79.1505V23.5868H84.2908C84.5764 23.5393 84.8144 23.4084 85.0048 23.1942C85.207 22.9681 85.3082 22.7063 85.3082 22.4088C85.3082 22.0995 85.207 21.8317 85.0048 21.6057C84.8025 21.3796 84.5467 21.2546 84.2373 21.2308H79.1505V19.0355H84.148C84.4693 19.0236 84.743 18.9046 84.9691 18.6785C85.1951 18.4524 85.3082 18.1787 85.3082 17.8575C85.3082 17.56 85.213 17.3042 85.0226 17.09C84.8322 16.8758 84.6002 16.739 84.3265 16.6795H79.1505V14.502H84.2373Z" fill="#DCD4F6"/>
<path d="M106.099 20.1242C106.372 20.4217 106.586 20.7668 106.741 21.1594C106.908 21.5402 106.997 21.9507 107.009 22.391C106.997 22.8313 106.908 23.2477 106.741 23.6404C106.586 24.0212 106.372 24.3603 106.099 24.6578C106.111 24.6578 106.116 24.6637 106.116 24.6756C105.807 24.9969 105.444 25.2587 105.028 25.4609C104.623 25.6513 104.177 25.7465 103.689 25.7465H98.5844V23.5868H103.725C104.022 23.5393 104.266 23.4084 104.457 23.1942C104.659 22.9681 104.76 22.7063 104.76 22.4088V22.391C104.76 22.0935 104.665 21.8436 104.474 21.6414C104.284 21.4272 104.046 21.2903 103.76 21.2308H101.155C100.667 21.2308 100.215 21.1357 99.7981 20.9453C99.3935 20.743 99.0366 20.4812 98.7272 20.1599V20.1421C98.4535 19.8446 98.2334 19.5055 98.0668 19.1247C97.9121 18.7321 97.8348 18.3156 97.8348 17.8753C97.8348 17.4351 97.9121 17.0245 98.0668 16.6438C98.2334 16.2511 98.4535 15.906 98.7272 15.6086V15.5907C99.0366 15.2694 99.3935 15.0136 99.7981 14.8232C100.215 14.6209 100.667 14.5198 101.155 14.5198H106.259V16.6795H101.119C100.821 16.7271 100.572 16.8639 100.369 17.09C100.179 17.3042 100.084 17.56 100.084 17.8575V17.8753C100.084 18.1728 100.179 18.4286 100.369 18.6428C100.56 18.857 100.792 18.9938 101.065 19.0533H103.689C104.177 19.0533 104.623 19.1485 105.028 19.3389C105.444 19.5293 105.807 19.7851 106.116 20.1064C106.116 20.1183 106.111 20.1242 106.099 20.1242Z" fill="#DCD4F6"/>
<path d="M117.37 16.7866H113.783V25.7465H111.498V16.7866H107.893V14.502H117.37V16.7866Z" fill="#DCD4F6"/>
<path d="M124.903 14.502H127.188V21.2844C127.188 21.9031 127.069 22.4862 126.831 23.0335C126.605 23.569 126.29 24.039 125.885 24.4436C125.481 24.8481 125.005 25.1694 124.457 25.4074C123.922 25.6335 123.345 25.7465 122.726 25.7465C122.107 25.7465 121.524 25.6335 120.977 25.4074C120.441 25.1694 119.971 24.8481 119.567 24.4436C119.162 24.039 118.841 23.569 118.603 23.0335C118.377 22.4862 118.264 21.9031 118.264 21.2844V14.502H120.548V21.2844C120.548 21.5819 120.602 21.8674 120.709 22.1411C120.828 22.4029 120.983 22.6349 121.173 22.8372C121.375 23.0276 121.607 23.1823 121.869 23.3013C122.143 23.4084 122.428 23.4619 122.726 23.4619C123.023 23.4619 123.303 23.4084 123.565 23.3013C123.838 23.1823 124.071 23.0276 124.261 22.8372C124.463 22.6349 124.618 22.4029 124.725 22.1411C124.844 21.8674 124.903 21.5819 124.903 21.2844V14.502Z" fill="#DCD4F6"/>
<path d="M131.29 14.502C132.063 14.502 132.789 14.6507 133.467 14.9482C134.157 15.2456 134.752 15.6502 135.252 16.1619C135.764 16.6616 136.168 17.2566 136.466 17.9467C136.763 18.625 136.912 19.3508 136.912 20.1242C136.912 20.8977 136.763 21.6235 136.466 22.3018C136.18 22.98 135.782 23.5749 135.27 24.0866C134.77 24.5983 134.181 25.0028 133.503 25.3003C132.825 25.5978 132.099 25.7465 131.325 25.7465H128.077V23.4798H131.308C131.772 23.4798 132.206 23.3905 132.611 23.212C133.015 23.0335 133.366 22.7956 133.664 22.4981C133.973 22.1887 134.217 21.8317 134.395 21.4272C134.574 21.0226 134.663 20.5883 134.663 20.1242C134.663 19.6602 134.574 19.2259 134.395 18.8213C134.217 18.4167 133.973 18.0657 133.664 17.7682C133.366 17.4589 133.015 17.2149 132.611 17.0364C132.206 16.858 131.772 16.7687 131.308 16.7687H128.077V14.502H131.29Z" fill="#DCD4F6"/>
<path d="M142.551 16.7866H141.319V23.4619H142.551V25.7465H137.803V23.4619H139.035V16.7866H137.803V14.502H142.551V16.7866Z" fill="#DCD4F6"/>
<path d="M149.073 14.502C149.846 14.502 150.572 14.6507 151.25 14.9482C151.94 15.2456 152.535 15.6502 153.035 16.1619C153.547 16.6616 153.951 17.2566 154.249 17.9467C154.546 18.625 154.695 19.3508 154.695 20.1242C154.695 20.8977 154.546 21.6295 154.249 22.3196C153.951 22.9978 153.547 23.5928 153.035 24.1045C152.535 24.6161 151.94 25.0207 151.25 25.3182C150.572 25.6037 149.846 25.7465 149.073 25.7465C148.299 25.7465 147.567 25.6037 146.877 25.3182C146.199 25.0207 145.604 24.6161 145.092 24.1045C144.581 23.5928 144.176 22.9978 143.879 22.3196C143.593 21.6295 143.45 20.8977 143.45 20.1242C143.45 19.3508 143.593 18.625 143.879 17.9467C144.176 17.2566 144.581 16.6616 145.092 16.1619C145.604 15.6502 146.199 15.2456 146.877 14.9482C147.567 14.6507 148.299 14.502 149.073 14.502ZM149.091 23.4798C149.555 23.4798 149.989 23.3905 150.393 23.212C150.798 23.0335 151.149 22.7956 151.447 22.4981C151.756 22.1887 152 21.8317 152.178 21.4272C152.357 21.0226 152.446 20.5883 152.446 20.1242C152.446 19.6602 152.357 19.2259 152.178 18.8213C152 18.4167 151.756 18.0657 151.447 17.7682C151.149 17.4589 150.798 17.2149 150.393 17.0364C149.989 16.858 149.555 16.7687 149.091 16.7687C148.626 16.7687 148.192 16.858 147.788 17.0364C147.383 17.2149 147.026 17.4589 146.717 17.7682C146.419 18.0657 146.181 18.4167 146.003 18.8213C145.836 19.2259 145.753 19.6602 145.753 20.1242C145.753 20.5883 145.836 21.0226 146.003 21.4272C146.181 21.8317 146.419 22.1887 146.717 22.4981C147.026 22.7956 147.383 23.0335 147.788 23.212C148.192 23.3905 148.626 23.4798 149.091 23.4798Z" fill="#DCD4F6"/>
<defs>
<clipPath id="clip0">
<rect width="40.0755" height="40.0476" fill="white"/>
</clipPath>
</defs>
</svg>
